<svg width="487" height="144" viewBox="0 0 487 144" fill="none" xmlns="http://www.w3.org/2000/svg">
<path d="M184.26 10.1055H196.859V35.4017H207.79V10.1055H220.389V71.8026H207.79V44.4619H196.859V71.8026H184.26V10.1055ZM229.974 10.1055H242.493V71.8026H229.974V10.1055ZM252.741 10.1055H266.104L273.74 49.032L281.777 10.1055H294.678L295.884 71.8026H286.721L285.716 29.9095L277.779 71.8026H270.002L261.844 29.7091L260.919 71.8026H251.696L252.741 10.1055ZM313.928 10.1055H327.994L339.81 71.8026H328.155L325.864 58.2525H316.098L313.767 71.8026H302.032L313.928 10.1055ZM324.699 50.4752L320.941 25.7001L317.284 50.5354L324.699 50.4752ZM346.079 10.1055H358.598V63.2637H373.186V71.8026H346.079V10.1055ZM388.036 10.1055H402.102L413.938 71.8026H402.323L400.032 58.2525H390.267L387.895 71.8026H376.06L388.036 10.1055ZM398.807 50.4752L395.069 25.7001L391.412 50.5354L398.807 50.4752ZM425.532 47.3483L413.475 10.1055H425.311L431.942 31.8137L437.97 10.1055H449.504L437.669 47.3483V71.8026H425.612L425.532 47.3483ZM461.119 10.1055H475.185L487 71.8026H475.406L473.115 58.2525H463.329L460.978 71.8026H449.143L461.119 10.1055ZM471.89 50.4752L468.152 25.7001L464.475 50.5354L471.89 50.4752ZM201.3 142.8C194.729 142.8 190.067 141.037 187.234 137.549C184.4 134.061 183.215 128.89 183.215 122.235V100.186C183.215 93.3706 184.554 88.2392 187.234 84.7915C189.913 81.3438 194.602 79.5933 201.3 79.5398C207.609 79.5398 212.064 81.09 214.662 84.1902C217.261 87.2904 218.601 91.6802 218.681 97.3595V102.551H206.464V96.7982C206.49 95.3157 206.389 93.8337 206.163 92.3684C206.051 91.2292 205.491 90.1805 204.606 89.4518C203.721 88.7231 202.583 88.3736 201.44 88.4797C200.561 88.3524 199.663 88.4976 198.869 88.8955C198.075 89.2934 197.422 89.9249 197 90.7047C196.239 92.7749 195.904 94.9769 196.015 97.1791V125.241C195.885 127.459 196.277 129.676 197.16 131.716C197.593 132.444 198.227 133.032 198.986 133.409C199.745 133.785 200.598 133.936 201.44 133.841C202.247 133.933 203.063 133.779 203.78 133.4C204.498 133.021 205.083 132.434 205.459 131.716C206.157 129.631 206.463 127.437 206.363 125.241V119.228H218.581V124.319C218.88 129.165 217.528 133.969 214.743 137.95C212.131 141.197 207.589 142.8 201.3 142.8ZM242.131 142.8C235.554 142.8 230.865 141.097 228.065 137.689C225.252 134.241 223.866 129.19 223.866 122.535V99.5243C223.866 92.8895 225.252 87.8784 228.065 84.5309C230.879 81.1835 235.54 79.4997 242.131 79.4997C248.722 79.4997 253.304 81.2035 256.097 84.6111C258.89 88.0187 260.377 92.9296 260.377 99.5243V122.616C260.377 129.217 258.95 134.241 256.097 137.689C253.243 141.137 248.588 142.841 242.131 142.8ZM242.131 133.8C242.975 133.906 243.831 133.76 244.593 133.382C245.354 133.005 245.987 132.411 246.411 131.676C247.26 129.788 247.652 127.729 247.557 125.662V96.4775C247.666 94.462 247.272 92.451 246.411 90.6245C245.988 89.8875 245.356 89.2912 244.595 88.9099C243.834 88.5285 242.977 88.3789 242.131 88.4797C241.268 88.3727 240.393 88.5184 239.611 88.8993C238.83 89.2801 238.176 89.8796 237.731 90.6245C236.93 92.4681 236.566 94.4708 236.666 96.4775V125.662C236.568 127.721 236.932 129.775 237.731 131.676C238.171 132.424 238.825 133.026 239.608 133.404C240.391 133.782 241.269 133.92 242.131 133.8ZM267.41 80.2614H279.929V141.959H267.41V80.2614ZM287.806 80.2614H296.587L310.331 112.333V80.2614H320.8V141.959H312.321L298.576 107.883V141.959H287.806V80.2614Z" fill="white"/>
<path d="M158.656 143.472H104.974V132.548H105.978C113.489 132.548 116.562 131.464 117.767 130.54C118.484 129.939 119.058 129.186 119.448 128.335C119.837 127.484 120.031 126.556 120.016 125.62C120.108 124.66 120.142 123.694 120.116 122.729V103.673H122.125V122.448L121.12 122.709H122.125C122.155 123.781 122.115 124.855 122.004 125.922C122.005 127.14 121.729 128.343 121.197 129.438C120.664 130.534 119.89 131.495 118.931 132.247C116.923 133.793 113.027 134.596 106.982 134.657V141.544H156.647V134.175C153.991 133.976 151.419 133.157 149.136 131.785C147.745 130.813 146.725 129.397 146.244 127.769C145.678 125.732 145.461 123.614 145.602 121.504V30.5408C145.448 28.3874 145.686 26.2238 146.304 24.1553C146.804 22.5801 147.815 21.2164 149.176 20.2799C151.45 18.921 154.007 18.1034 156.647 17.8903V10.6213H111.46L119.092 20.1594C120.21 21.451 121.049 22.9594 121.557 24.5903C122.065 26.2212 122.231 27.9393 122.044 29.6372V55.8419H120.036V29.5368C120.206 28.1043 120.08 26.6521 119.666 25.2704C119.251 23.8886 118.557 22.6069 117.626 21.5048L107.444 8.61328H158.656V19.6775L157.752 19.7779C155.131 19.9024 152.574 20.6309 150.281 21.9064C149.275 22.6211 148.528 23.6427 148.152 24.818C147.64 26.6726 147.456 28.6028 147.61 30.5208V121.524C147.492 123.43 147.682 125.342 148.172 127.187C148.541 128.387 149.306 129.428 150.341 130.139C152.617 131.44 155.172 132.177 157.792 132.287H158.696L158.656 143.472Z" fill="#FCBD14"/>
<path d="M54.3045 143.473H0V132.469L1.00415 132.369C3.6577 132.233 6.24608 131.498 8.57545 130.22C9.59521 129.515 10.3512 128.491 10.7243 127.308C11.2597 125.458 11.4637 123.527 11.3268 121.606V30.3612C11.4503 28.4478 11.2535 26.5272 10.7444 24.6785C10.3618 23.4794 9.59187 22.4411 8.55537 21.7268C6.25027 20.3966 3.66221 19.6326 1.00415 19.4979H0V8.37344H51.8945L41.5317 21.1846C40.546 22.2888 39.8083 23.5914 39.3684 25.0046C38.9284 26.4178 38.7964 27.9088 38.9811 29.3773V48.3531C43.3392 42.811 55.2283 29.9998 72.9214 28.5139V18.3533H61.5946L80.0308 0L98.3064 18.293L87.7427 18.5742V28.6143C94.7097 29.6362 101.433 31.9155 107.585 35.3411C114.919 39.9895 120.342 47.1145 122.868 55.4213L123.209 56.4253L103.789 61.6662L103.428 60.8831C103.428 60.7426 97.4026 49.1764 87.7829 46.827V108.112C90.4539 107.369 97.6637 104.317 104.914 92.5295L105.335 91.8066L124.555 98.9551L124.153 99.919C120.948 108.535 114.99 115.854 107.203 120.742C101.264 124.264 94.6701 126.539 87.823 127.429V133.734H72.6403V127.308C68.3023 126.224 47.9583 120.441 39.0012 107.228V122.71C38.9414 123.653 38.9414 124.598 39.0012 125.541C38.9716 126.473 39.1531 127.4 39.5322 128.252C39.9113 129.104 40.4781 129.859 41.1903 130.461C43.0781 131.907 47.2152 132.469 53.2401 132.469H54.2442L54.3045 143.473ZM2.08863 141.465H52.2962V134.557C46.2713 134.557 42.2547 133.714 40.146 132.108C39.205 131.349 38.4472 130.389 37.9291 129.297C37.411 128.205 37.1459 127.011 37.1536 125.802C37.0947 124.746 37.0947 123.686 37.1536 122.63V100.381L39.1619 103.614C47.4562 119.357 73.5641 125.481 73.8252 125.541L74.6084 125.722V131.746H85.6942V125.602H86.6181C93.478 124.827 100.096 122.609 106.038 119.096C113.163 114.643 118.669 108.019 121.743 100.2L106.038 94.3568C96.4989 109.457 87.1402 110.421 86.7386 110.421H85.634V44.317L86.8189 44.5178C96.8604 46.2045 103.106 56.3852 104.693 59.2365L120.498 54.9795C118.041 47.5123 113.074 41.1263 106.44 36.9074C100.25 33.5172 93.4908 31.2916 86.4976 30.3412L85.634 30.2207V16.5662L93.4865 16.3453L80.0308 2.85139L66.4547 16.3453H74.9297V30.4014H73.9858C51.8945 31.7468 38.9611 51.7266 38.8406 51.9274L36.9728 54.839V29.3974C36.7901 27.692 36.9635 25.9672 37.482 24.3323C38.0006 22.6974 38.853 21.1879 39.9853 19.8995L47.6771 10.3815H2.0083V17.6906C4.69889 17.8734 7.30762 18.6923 9.61977 20.0802C11.0174 21.0504 12.0441 22.4664 12.5318 24.0962C13.1301 26.1619 13.3679 28.3152 13.2347 30.4616V121.586C13.3852 123.727 13.1402 125.878 12.5117 127.931C12.0321 129.559 11.0121 130.976 9.61977 131.947C7.29107 133.285 4.68799 134.075 2.0083 134.256L2.08863 141.465Z" fill="#FCBD14"/>
<path d="M75.0111 110.682H73.766L73.5049 110.561L71.4966 109.598C65.5254 106.71 60.4891 102.198 56.9654 96.5793C53.4416 90.9606 51.5731 84.4626 51.5742 77.8307V77.5094C51.6766 71.0813 53.5053 64.7989 56.8688 59.3197C60.2323 53.8406 65.0071 49.3663 70.6933 46.365L75.0111 44.0156V110.682ZM73.0028 47.3891L71.6572 48.1321C66.3081 50.9749 61.8191 55.1997 58.6578 60.3665C55.4966 65.5334 53.7786 71.4532 53.6829 77.5094V77.8307C53.6831 84.094 55.4461 90.2309 58.7703 95.5396C62.0945 100.848 66.8457 105.115 72.4806 107.851L73.0028 108.112V47.3891Z" fill="#FCBD14"/>
</svg>
