<svg width="487" height="140" viewBox="0 0 487 140" fill="none" xmlns="http://www.w3.org/2000/svg">
<path d="M184.348 5.81641H196.985V31.0886H207.817V5.81641H220.455V67.5929H207.817V40.315H196.985V67.5929H184.348V5.81641ZM229.883 5.81641H242.32V67.5929H229.883V5.81641ZM252.75 5.81641H265.99L273.612 44.7276L281.636 5.81641H294.474L295.677 67.5929H286.45L285.447 25.6731L277.423 67.5929H269.6L261.777 25.4726L260.774 67.5929H251.547L252.75 5.81641ZM313.731 5.81641H327.773L339.608 67.5929H327.973L325.767 53.9539H315.937L313.53 67.5929H301.896L313.731 5.81641ZM324.563 46.3322L320.752 21.4611L317.141 46.3322H324.563ZM345.826 5.81641H358.263V58.9683H372.906V67.5929H345.826V5.81641ZM387.75 5.81641H401.792L413.627 67.5929H401.992L399.786 53.9539H389.957L387.549 67.5929H375.714L387.75 5.81641ZM398.582 46.3322L394.771 21.4611L391.16 46.3322H398.582ZM425.261 43.123L413.226 5.81641H425.061L431.68 27.4783L437.698 5.81641H449.132L437.297 43.123V67.5929H425.261V43.123ZM460.766 5.81641H474.808L486.643 67.5929H475.008L472.802 53.9539H462.973L460.566 67.5929H448.731L460.766 5.81641ZM471.398 46.3322L467.787 21.4611L464.176 46.3322H471.398ZM184.147 76.017H199.192C204.407 76.017 208.419 76.6187 211.227 78.0227C214.236 79.4267 216.242 81.4324 217.446 84.2405C218.649 87.0485 219.251 90.6588 219.251 95.272V117.736C219.251 122.55 218.649 126.361 217.446 129.169C216.242 131.977 214.236 134.183 211.227 135.587C208.419 136.991 204.407 137.593 199.192 137.593H183.746V76.017H184.147ZM199.392 128.968C201.599 128.968 203.204 128.567 204.207 127.965C205.21 127.163 206.012 126.16 206.213 124.957C206.614 123.553 206.614 121.748 206.614 119.341V93.6674C206.614 91.2605 206.413 89.6559 206.012 88.4525C205.611 87.2491 205.009 86.2462 204.006 85.8451C203.003 85.2433 201.398 84.8422 199.192 84.8422H196.584V128.968H199.392ZM243.724 138.596C237.104 138.596 232.49 136.991 229.682 133.581C226.874 130.172 225.47 125.157 225.47 118.338V95.272C225.47 88.6531 226.874 83.6387 229.682 80.229C232.49 76.8193 237.104 75.2147 243.724 75.2147C250.143 75.2147 254.957 76.8193 257.765 80.229C260.574 83.6387 261.978 88.6531 261.978 95.0714V118.137C261.978 124.756 260.574 129.771 257.765 133.18C254.756 136.991 250.143 138.596 243.724 138.596ZM243.724 129.57C245.93 129.57 247.334 128.768 247.936 127.364C248.739 125.96 249.14 123.954 249.14 121.346V92.2634C249.14 89.6559 248.739 87.8508 247.936 86.4468C247.134 85.0428 245.73 84.2405 243.724 84.2405C241.517 84.2405 240.113 85.0428 239.311 86.4468C238.508 87.8508 238.308 89.8565 238.308 92.2634V121.547C238.308 124.155 238.709 126.16 239.311 127.564C240.113 128.968 241.517 129.57 243.724 129.57ZM268.798 76.017H281.235V129.169H295.878V137.793H268.798V76.017ZM300.291 76.017H312.728V129.169H327.371V137.793H300.291V76.017ZM340.611 76.017H354.652L366.487 137.793H354.853L352.646 124.155H342.817L340.41 137.793H328.575L340.611 76.017ZM351.242 116.533L347.631 91.6617L344.021 116.533H351.242ZM371.101 76.017H387.148C393.768 76.017 398.783 77.2204 402.193 79.6273C405.603 82.0342 407.208 86.2462 407.208 92.2634C407.208 96.2749 406.606 99.484 405.603 102.091C404.399 104.498 402.594 106.304 399.585 107.708L408.211 137.793H395.373L388.151 109.914H383.538V137.793H371.101V76.017ZM387.349 102.292C390.358 102.292 392.364 101.49 393.567 100.086C394.771 98.6817 395.373 96.2749 395.373 93.2663C395.373 90.2577 394.771 88.0514 393.768 86.6473C392.765 85.2433 390.759 84.441 387.951 84.441H383.538V102.292H387.349Z" fill="white"/>
<path d="M158.469 139.599H105.312V128.768H106.716C113.937 128.768 116.746 127.765 117.949 126.762C119.153 125.96 119.955 124.355 120.156 121.948C120.356 120.946 120.356 119.943 120.356 119.14V118.94V106.705C115.141 114.527 104.108 122.55 86.8571 123.553V130.373H71.612V123.954C54.7621 122.751 43.3283 110.315 38.3134 103.696V119.341C38.3134 120.344 38.3134 121.347 38.514 122.35C38.7146 124.756 39.517 126.361 40.7206 127.163C41.9241 128.166 44.933 129.169 51.9538 129.169H53.1574V140H0V128.968H0.802375C4.21247 128.567 6.82019 127.966 8.22435 126.963C9.22732 126.361 10.0297 125.358 10.4309 124.155C10.8321 122.35 11.0327 120.544 11.0327 117.937V28.2808C11.0327 25.6734 10.8321 23.6676 10.4309 22.6648C10.0297 21.4613 9.22732 20.4585 8.22435 19.8567C6.82019 18.8539 4.21247 18.0516 0.802375 17.851H0V6.81948H50.9508L40.7206 19.4556C39.1158 21.4613 38.1128 23.2665 38.3134 27.4785V42.3209C42.3253 37.9083 53.1574 28.2808 72.4144 27.8797V18.0516H61.3817L79.2346 0L97.0874 17.851H86.8571V27.6791C91.4708 27.8797 111.129 29.2837 120.356 40.7163V27.2779C120.557 23.0659 119.554 21.2607 117.949 19.255L107.719 6.61891H158.67V17.4499H157.867C154.457 17.851 151.85 18.4527 150.445 19.4556C149.442 20.0573 148.64 21.0602 148.239 22.2636C147.637 23.6676 147.437 25.4728 147.437 28.0802V117.937C147.437 121.146 147.637 122.751 148.038 123.553C148.439 124.756 149.242 125.759 150.245 126.361C151.85 127.364 154.257 128.166 157.667 128.367H158.469V139.599ZM107.318 137.593H156.463V130.373C153.254 129.971 150.646 129.169 149.041 127.966C147.637 126.963 146.634 125.759 146.233 124.155C145.832 122.751 145.431 120.745 145.631 117.937V28.2808C145.631 25.2722 145.832 23.2665 146.233 22.063C146.835 20.4585 147.838 19.0544 149.041 18.2521C150.646 17.0487 153.053 16.447 156.463 15.8453V8.62464H111.731L119.353 18.0516C121.159 20.2579 122.362 22.6648 122.362 27.4785V47.7364L120.557 44.5272C111.931 30.086 86.2554 29.6848 85.8542 29.6848H84.8512V16.0458H92.2732L79.2346 2.80802L66.196 15.8453H74.4203V29.6848H73.4174C49.1455 29.6848 38.3134 45.3295 38.1128 45.5301L36.3075 48.1375V27.2779C36.1069 22.4642 37.3105 20.0573 39.3164 17.851L46.7384 8.62464H2.00594V15.8453C5.21544 16.2464 7.82316 17.0487 9.42791 18.2521C10.8321 19.255 11.835 20.4585 12.2362 22.063C12.838 23.2665 13.0386 25.2722 13.0386 28.2808V117.937C13.0386 120.946 12.838 122.951 12.4368 124.155C11.835 125.759 10.8321 127.163 9.62851 127.966C8.02376 129.169 5.61663 129.771 2.20653 130.373V137.593H51.1514V130.774C45.1336 130.774 41.3223 129.971 39.3164 128.367C37.7117 127.364 36.7087 125.358 36.3075 122.149C36.3075 121.146 36.1069 120.143 36.1069 119.14V97.0774L37.9122 99.8854C41.1217 104.9 53.358 121.146 72.4144 121.948H73.4174V128.367H84.6506V121.547H85.6536C105.312 120.745 116.746 110.716 120.356 102.493L122.362 98.2808V119.14C122.362 120.143 122.362 121.146 122.162 122.35C121.76 125.358 120.758 127.564 119.153 128.567C117.147 130.172 113.336 130.974 107.318 130.974V137.593ZM84.8512 107.507V80.4298L86.0548 80.6304C94.4797 82.4355 103.506 85.043 103.506 94.0688C103.506 104.499 91.2702 106.705 85.8542 107.106L84.8512 107.507ZM86.8571 82.8367V105.1C92.0726 104.499 101.501 102.292 101.501 94.0688C101.501 87.6504 95.8839 85.043 86.8571 82.8367ZM73.618 105.301H72.4144L72.2138 105.1C71.612 104.9 60.1782 98.4814 57.5704 92.0631L36.3075 89.6562V60.7736L38.3134 64.9857C43.1277 75.2149 57.3699 78.0229 63.5883 79.2264H63.7889C66.7978 79.8281 69.6061 80.2292 73.0162 80.6304L73.8186 80.831V105.301H73.618ZM38.1128 88.0516L58.9746 90.4585L59.1752 91.0602C60.5794 95.6734 68.2019 100.688 71.612 102.693V82.4355C68.6031 82.0344 65.9954 81.6333 63.1871 81.0315H62.9865C57.1693 80.0287 44.5318 77.6218 38.1128 68.9971V88.0516ZM122.362 85.6447L120.557 82.235C113.937 70.2006 95.2821 67.192 95.0815 67.192C92.0726 66.5903 89.0637 65.9885 85.8542 65.788L84.8512 65.5874V43.7249L86.0548 43.9255C94.4797 44.9284 104.911 47.3353 107.318 53.3524H122.362V85.6447ZM95.0815 65.1863C96.0845 65.3868 112.132 67.7937 120.156 78.2235V55.3582H105.512L105.312 54.5559C104.108 50.5444 97.4886 47.3353 86.6566 45.9312V63.5817C89.6655 64.1834 92.2732 64.5845 95.0815 65.1863ZM72.615 68.9971L71.2108 68.7966C62.7859 66.9914 53.7592 64.384 53.7592 55.3582C53.7592 44.9284 65.9954 42.7221 71.4114 42.3209H72.4144V68.9971H72.615ZM70.609 44.3267C65.3936 44.9284 55.9657 47.1347 55.9657 55.3582C55.9657 61.7765 61.5823 64.5845 70.609 66.5903V44.3267Z" fill="#FCBD14"/>
</svg>
