<?xml version="1.0" encoding="utf-8"?>
<!-- Generator: Adobe Illustrator 26.2.1, SVG Export Plug-In . SVG Version: 6.00 Build 0)  -->
<svg version="1.1" id="Layer_1" xmlns="http://www.w3.org/2000/svg" xmlns:xlink="http://www.w3.org/1999/xlink" x="0px" y="0px"
	 viewBox="0 0 495 142" style="enable-background:new 0 0 495 142;" xml:space="preserve">
<style type="text/css">
	.st0{fill:#FEBD09;}
	.st1{fill:#FCBD14;}
	.st2{fill:#FFFFFF;}
</style>
<path class="st0" d="M302.5,131.1h10.6v11h-10.6V131.1z"/>
<path class="st1" d="M36.3,114.4V33.5l31.6,41.1L36.3,114.4z M38.5,39.9v68.2l26.6-33.6L38.5,39.9z"/>
<path class="st1" d="M120.4,114.4L88.8,74.6l31.6-41.1V114.4z M91.6,74.5l26.6,33.6V39.9L91.6,74.5z"/>
<path class="st1" d="M156.7,142h-53.6v-11h1.1c6,0,9.9-0.6,11.7-2l0.1,0l0.1,0c1.1-0.7,1.8-2.2,2.1-4.7c0.1-0.9,0.1-1.9,0.1-2.8
	v-1.1l-22.9,0L85.9,102v29.9H71.3V102l-9.1,18.3l-23.7,0v1c0,0.9,0,1.9,0.1,2.8c0.3,2.4,1,4,2.1,4.7l0.1,0l0.1,0
	c1.7,1.4,5.7,2,11.6,2l1.1,0v11H0v-11.2l1-0.1c3.5-0.4,6-1.1,7.4-2.1c1-0.7,1.7-1.7,2.1-2.8l0,0c0.4-1.1,0.6-3,0.6-5.6V29.9
	c0-2.7-0.1-4.5-0.5-5.5l0-0.1c-0.4-1.1-1.1-2.1-2.1-2.8c-1.5-1-3.9-1.7-7.4-2.1l-1-0.1V8.1h51.3L41,21c-1.5,1.7-2.4,3.5-2.5,7h23.7
	l9.1,17.9V18.2H60.2L78.3,0l3.6,3.6l14.4,14.6H85.9v27.7L95,28h23.2c-0.1-3.5-1-5.2-2.5-7l0,0L105.4,8.1h51.3v11.2l-1,0.1
	c-3.5,0.4-6,1.1-7.4,2.1c-1,0.7-1.7,1.7-2.1,2.8l0,0.1c-0.4,1-0.6,2.8-0.6,5.5v90.2c0,2.6,0.2,4.5,0.6,5.6l0,0
	c0.4,1.2,1.1,2.2,2.1,2.8c1.4,1,3.9,1.7,7.4,2.1l1,0.1L156.7,142z M105.3,139.8h49.2v-7c-3.4-0.4-5.8-1.2-7.4-2.4
	c-1.4-1-2.4-2.3-2.9-4c-0.5-1.4-0.7-3.4-0.7-6.3V30c0-3,0.2-5,0.7-6.3c0.5-1.6,1.5-3,2.9-3.9c1.6-1.1,4.1-1.9,7.5-2.4v-7H110
	l7.4,9.3c1.9,2.2,3.1,4.6,3,9.5l0,1.1h-24L83.7,55V16h7.4L80.4,5.2l-2.1-2.1L65.5,16h8V55L60.9,30.2H36.3l0-1.1
	c-0.1-4.9,1.1-7.3,3-9.5l7.4-9.3H2.2v7c3.4,0.4,5.8,1.2,7.4,2.4c1.4,0.9,2.4,2.3,2.9,3.9c0.5,1.3,0.7,3.3,0.7,6.3v90.2
	c0,2.9-0.2,5-0.7,6.3c-0.5,1.6-1.5,3-2.9,3.9c-1.6,1.1-4.1,1.9-7.5,2.4v7h49.2v-6.6c-5.9-0.1-9.8-0.9-11.9-2.4
	c-1.7-1.1-2.7-3.1-3.1-6.3c-0.1-1-0.2-2.1-0.1-3.1v-3.2l24.5,0l12.7-25.4v36.9h10.2V92.8l12.9,25.3l23.8,0v3.2c0,1,0,2.1-0.1,3.1
	c-0.4,3.2-1.4,5.2-3.1,6.3c-2.1,1.6-5.9,2.4-11.9,2.4L105.3,139.8z"/>
<g>
	<path class="st2" d="M182.3,10h12.4v25h10.8V10h12.4v61h-12.4V44h-10.8v27h-12.4V10z M227.4,10h12.3v61h-12.3V10z M249.8,10H263
		l7.5,38.5l8-38.5h12.7l1.1,61h-9l-1-41.4L274.5,71h-7.7l-8-41.7L257.9,71h-9.1L249.8,10z M310.1,10h13.8l11.7,61h-11.4l-2.3-13.4
		h-9.6L310,71h-11.7L310.1,10z M320.7,49.9L317,25.4l-3.6,24.6H320.7z M341.8,10h12.3v52.6h14.4V71h-26.7V10z M383.1,10h13.8
		l11.7,61h-11.4l-2.3-13.4h-9.6L383,71h-11.7L383.1,10z M393.7,49.9l-3.7-24.6l-3.6,24.6H393.7z M420.1,46.9L408.2,10h11.7l6.5,21.5
		l6-21.5h11.4L432,46.9V71h-12V46.9z M455.1,10h13.8l11.7,61h-11.4L467,57.6h-9.6L455,71h-11.7L455.1,10z M465.8,49.9l-3.7-24.6
		l-3.6,24.6H465.8z M182.9,79.6h8.7l13.5,31.7V79.6h10.3v61H207l-13.5-33.7v33.7h-10.6V79.6z"/>
	<g>
		<path class="st2" d="M239,140.6h-11.6v-61h32v10.6H239v15.7H258v10.6H239V140.6z"/>
		<path class="st2" d="M288.7,140.6h-9V90.4h-11.5V79.6h32v10.8h-11.5V140.6z"/>
	</g>
</g>
</svg>
