<svg width="495" height="142" viewBox="0 0 495 142" fill="none" xmlns="http://www.w3.org/2000/svg">
<path d="M182.346 10.0234H194.76V35.0312H205.515V10.0234H217.929V71.0372H205.515V43.9948H194.755V71.0372H182.346V10.0234ZM227.386 10.0234H239.726V71.0372H227.386V10.0234ZM249.812 10.0234H262.978L270.499 48.5148L278.475 10.0234H291.19L292.322 71.0372H283.293L282.314 29.6078L274.49 71.0372H266.815L258.765 29.382L257.861 71.0372H248.758L249.812 10.0234ZM310.102 10.0234H323.871L335.607 71.0372H324.172L321.915 57.6289H312.283L309.95 71.0372H298.293L310.102 10.0234ZM320.709 49.9462L317.023 25.3947L313.411 49.9462H320.709ZM341.785 10.0234H354.125V62.6006H368.495V71.0372H341.785V10.0234ZM383.137 10.0234H396.906L408.642 71.0372H397.206L394.949 57.6289H385.318L382.987 71.0372H371.329L383.137 10.0234ZM393.746 49.9462L390.059 25.3947L386.447 49.9462H393.746ZM420.075 46.8576L408.186 10.0234H419.844L426.39 31.4909L432.409 10.0234H443.771L432.038 46.8576V71.0372H420.075V46.8576ZM455.142 10.0234H468.915L480.648 71.0372H469.212L466.953 57.6289H457.322L454.992 71.0372H443.334L455.142 10.0234ZM465.751 49.9462L462.064 25.3947L458.453 49.9462H465.751ZM182.199 79.4021H208.759V87.9905H194.538V104.185H205.515V112.844H194.53V131.977H208.9V140.414H182.199V79.4021ZM221.805 107.725L210.217 79.4021H221.955L229.177 97.0294L235.197 79.4021H245.729L234.669 110.664L246.789 140.417H235.198L227.222 121.134L220.225 140.417H209.766L221.805 107.725ZM266.504 141.246C260.034 141.246 255.444 139.514 252.735 136.049C250.028 132.534 248.673 127.487 248.672 120.908V99.063C248.672 92.3337 250.002 87.2617 252.66 83.8468C255.37 80.3819 259.984 78.6494 266.504 78.6494C272.724 78.6494 277.112 80.1811 279.671 83.2446C282.279 86.2557 283.583 90.5993 283.584 96.2754V101.398H271.545V95.7485C271.545 93.9403 271.445 92.4842 271.245 91.3802C271.091 90.2754 270.639 89.3713 269.89 88.668C269.187 87.9144 268.084 87.5377 266.58 87.5377C264.323 87.5377 262.868 88.2661 262.216 89.723C261.565 91.1798 261.238 93.3138 261.238 96.1249V123.846C261.238 126.708 261.614 128.842 262.367 130.248C263.119 131.654 264.523 132.357 266.58 132.358C268.686 132.358 270.041 131.655 270.642 130.248C271.245 128.791 271.546 126.657 271.545 123.846V117.895H283.584V122.942C283.584 128.767 282.305 133.287 279.746 136.5C277.188 139.664 272.774 141.246 266.504 141.246ZM289.809 79.4044H302.223V104.411H312.983V79.4021H325.397V140.417H312.983V113.375H302.223V140.417H289.809V79.4044ZM341.997 79.4044H355.766L367.503 140.419H356.066L353.81 127.011H344.179L341.846 140.419H330.188L341.997 79.4044ZM352.606 119.329L348.919 94.7688L345.307 119.329H352.606ZM372.174 79.4056H380.831L394.373 111.119V79.4021H404.681V140.417H396.33L382.782 106.672V140.417H372.174V79.4056ZM427.904 141.322C421.985 141.322 417.747 139.514 415.188 135.898C412.68 132.233 411.426 127.01 411.426 120.229V99.8169C411.426 92.8853 412.756 87.6353 415.414 84.0669C418.124 80.4513 422.738 78.6436 429.258 78.6436C435.528 78.6436 439.991 80.1753 442.648 83.2388C445.304 86.3024 446.634 90.7236 446.638 96.5024V100.043H434.6V95.7485C434.6 92.9359 434.274 90.8768 433.621 89.5713C433.02 88.2163 431.615 87.5384 429.408 87.5377C427.151 87.5377 425.697 88.2912 425.045 89.7983C424.394 91.3053 424.067 93.4899 424.067 96.3519V123.468C424.067 126.331 424.468 128.541 425.27 130.097C426.072 131.604 427.577 132.357 429.785 132.358C431.939 132.358 433.444 131.554 434.299 129.947C435.202 128.289 435.653 126.004 435.653 123.092V116.614H429.71V109.086H446.869V140.422H438.743L437.915 134.998C436.058 139.215 432.721 141.322 427.904 141.322ZM453.881 79.4021H480.44V87.9905H466.22V104.185H477.205V112.844H466.22V131.977H480.591V140.414H453.881V79.4021Z" fill="white"/>
<path d="M484.446 129.465H495V140.477H484.446V129.465Z" fill="#FEBD09"/>
<path d="M36.3008 114.401V33.4844L67.9272 74.5513L36.3008 114.401ZM38.4939 39.9361V108.099L65.1339 74.5305L38.4939 39.9361Z" fill="#FCBD14"/>
<path d="M120.391 114.401L88.7734 74.5513L120.391 33.4844V114.401ZM91.561 74.5305L118.198 108.099V39.9326L91.561 74.5305Z" fill="#FCBD14"/>
<path d="M156.696 142H103.113V130.985H104.215C110.217 131.013 114.131 130.339 115.865 128.972L115.921 128.928L115.982 128.89C117.096 128.227 117.803 126.65 118.083 124.199C118.184 123.264 118.217 122.323 118.182 121.383V120.333L95.2568 120.302L85.9223 101.975V131.839H71.3442V102.04L62.2164 120.303L38.515 120.336V121.378C38.4809 122.321 38.5144 123.265 38.6154 124.204C38.8936 126.644 39.6012 128.222 40.715 128.887L40.7762 128.923L40.8316 128.967C42.5791 130.339 46.4978 131.014 52.4814 130.981L53.5849 130.974V141.99H0V130.812L0.979958 130.706C4.45194 130.335 6.94397 129.632 8.38447 128.622C9.3775 127.94 10.1101 126.939 10.4621 125.784L10.4794 125.734C10.8857 124.636 11.0739 122.762 11.0392 120.164V29.9377C11.0762 27.2232 10.8961 25.4107 10.4898 24.3963L10.4644 24.3256C10.1014 23.1836 9.37057 22.195 8.38678 21.5149C6.93589 20.497 4.44386 19.7952 0.981112 19.4292L0 19.3262V8.14598H51.3168L40.9528 21.0216C39.465 22.7587 38.5635 24.5051 38.4861 27.9794H62.2106L71.3015 45.8765V18.1854H60.156L78.3158 0L81.9425 3.63176L96.3752 18.182H85.9016V45.8799L95.0028 27.9794H118.21C118.133 24.5051 117.231 22.7541 115.742 21.0216L115.72 20.995L105.38 8.14598H156.696V19.3262L155.714 19.4292C152.251 19.7952 149.76 20.497 148.312 21.5138C147.328 22.1942 146.598 23.1827 146.234 24.3245L146.211 24.3893C145.804 25.4177 145.624 27.2324 145.661 29.9354V120.169C145.626 122.766 145.814 124.64 146.22 125.739L146.236 125.788C146.588 126.944 147.32 127.946 148.314 128.629C149.756 129.642 152.247 130.344 155.716 130.713L156.697 130.819L156.696 142ZM105.306 139.8H154.503V132.789C151.119 132.346 148.675 131.573 147.054 130.432C145.676 129.476 144.657 128.085 144.157 126.482C143.657 125.109 143.432 123.039 143.464 120.15V29.9597C143.424 26.9487 143.644 24.9325 144.157 23.6122C144.666 22.0303 145.68 20.6605 147.042 19.7141C148.671 18.5688 151.114 17.7952 154.493 17.3562V10.3463H109.969L117.416 19.5983C119.341 21.845 120.513 24.2237 120.402 29.105L120.378 30.1797H96.3464L83.7085 55.0358V15.9816H91.0957L80.3935 5.18707L78.3158 3.10831L65.4575 15.9851H73.4945V55.0404L60.8671 30.1797H36.3185L36.2942 29.105C36.1846 24.2225 37.355 21.845 39.2803 19.5983L46.7275 10.3463H2.19307V17.3562C5.57156 17.7952 8.01511 18.5688 9.6426 19.7141C11.0054 20.6594 12.0197 22.029 12.5282 23.6111C13.0419 24.9186 13.2623 26.9383 13.2208 29.9609V120.142C13.2589 123.037 13.0338 125.104 12.5282 126.475C12.0286 128.077 11.0102 129.467 9.63452 130.423C8.01857 131.564 5.56925 132.339 2.18269 132.783V139.794H51.3907V133.185C45.4855 133.131 41.6003 132.331 39.5331 130.753C37.8109 129.692 36.7963 127.626 36.4339 124.456C36.3213 123.418 36.2827 122.373 36.3185 121.329V118.147L60.8578 118.114L73.5338 92.7523V129.639H83.7258V92.8323L96.5957 118.11L120.373 118.141V121.327C120.409 122.371 120.371 123.416 120.258 124.454C119.893 127.637 118.873 129.698 117.158 130.757C115.103 132.337 111.217 133.137 105.3 133.195L105.306 139.8Z" fill="#FCBD14"/>
</svg>
