<?xml version="1.0" encoding="utf-8"?>
<!-- Generator: Adobe Illustrator 26.2.1, SVG Export Plug-In . SVG Version: 6.00 Build 0)  -->
<svg version="1.1" id="Layer_1" xmlns="http://www.w3.org/2000/svg" xmlns:xlink="http://www.w3.org/1999/xlink" x="0px" y="0px"
	 viewBox="0 0 171 142" style="enable-background:new 0 0 171 142;" xml:space="preserve">
<style type="text/css">
	.st0{fill:#FCBD14;}
</style>
<path class="st0" d="M43.5,114.9V33.9L75.1,75L43.5,114.9z M45.6,40.4v68.2L72.3,75L45.6,40.4z"/>
<path class="st0" d="M127.5,114.9L95.9,75l31.6-41.1V114.9z M98.7,75l26.6,33.6V40.4L98.7,75z"/>
<path class="st0" d="M163.8,142.5h-53.6v-11h1.1c6,0,9.9-0.6,11.7-2l0.1,0l0.1,0c1.1-0.7,1.8-2.2,2.1-4.7c0.1-0.9,0.1-1.9,0.1-2.8
	v-1.1l-22.9,0l-9.3-18.3v29.9H78.5v-29.8l-9.1,18.3l-23.7,0v1c0,0.9,0,1.9,0.1,2.8c0.3,2.4,1,4,2.1,4.7l0.1,0l0.1,0
	c1.7,1.4,5.7,2,11.6,2l1.1,0v11H7.2v-11.2l1-0.1c3.5-0.4,6-1.1,7.4-2.1c1-0.7,1.7-1.7,2.1-2.8l0,0c0.4-1.1,0.6-3,0.6-5.6V30.4
	c0-2.7-0.1-4.5-0.5-5.5l0-0.1c-0.4-1.1-1.1-2.1-2.1-2.8c-1.5-1-3.9-1.7-7.4-2.1l-1-0.1V8.6h51.3L48.1,21.5c-1.5,1.7-2.4,3.5-2.5,7
	h23.7l9.1,17.9V18.6H67.3L85.5,0.5l3.6,3.6l14.4,14.6H93.1v27.7l9.1-17.9h23.2c-0.1-3.5-1-5.2-2.5-7l0,0L112.5,8.6h51.3v11.2l-1,0.1
	c-3.5,0.4-6,1.1-7.4,2.1c-1,0.7-1.7,1.7-2.1,2.8l0,0.1c-0.4,1-0.6,2.8-0.5,5.5v90.2c0,2.6,0.2,4.5,0.6,5.6l0,0
	c0.4,1.2,1.1,2.2,2.1,2.8c1.4,1,3.9,1.7,7.4,2.1l1,0.1L163.8,142.5z M112.5,140.3h49.2v-7c-3.4-0.4-5.8-1.2-7.4-2.4
	c-1.4-1-2.4-2.3-2.9-4c-0.5-1.4-0.7-3.4-0.7-6.3V30.4c0-3,0.2-5,0.7-6.3c0.5-1.6,1.5-3,2.9-3.9c1.6-1.1,4.1-1.9,7.5-2.4v-7h-44.5
	l7.4,9.3c1.9,2.2,3.1,4.6,3,9.5l0,1.1h-24L90.9,55.5V16.4h7.4L87.5,5.6l-2.1-2.1L72.6,16.4h8v39.1L68,30.6H43.5l0-1.1
	c-0.1-4.9,1.1-7.3,3-9.5l7.4-9.3H9.3v7c3.4,0.4,5.8,1.2,7.4,2.4c1.4,0.9,2.4,2.3,2.9,3.9c0.5,1.3,0.7,3.3,0.7,6.3v90.2
	c0,2.9-0.2,5-0.7,6.3c-0.5,1.6-1.5,3-2.9,3.9c-1.6,1.1-4.1,1.9-7.5,2.4v7h49.2v-6.6c-5.9-0.1-9.8-0.9-11.9-2.4
	c-1.7-1.1-2.7-3.1-3.1-6.3c-0.1-1-0.2-2.1-0.1-3.1v-3.2l24.5,0l12.7-25.4v36.9h10.2V93.3l12.9,25.3l23.8,0v3.2c0,1,0,2.1-0.1,3.1
	c-0.4,3.2-1.4,5.2-3.1,6.3c-2.1,1.6-5.9,2.4-11.9,2.4L112.5,140.3z"/>
</svg>
