<svg width="20" height="18" viewBox="0 0 20 18" fill="none" xmlns="http://www.w3.org/2000/svg">
<path d="M18.1507 2.03608e-08H1.56712C0.999275 0.000329612 0.538949 0.445056 0.539063 0.993603V17.0073C0.539404 17.5556 0.999958 18.0001 1.56803 18H10.4965V11.0391H8.0754V8.31445H10.4965V6.30934C10.4965 3.98408 11.9666 2.71846 14.1146 2.71846C15.1434 2.71846 16.0276 2.7925 16.2853 2.82557V5.25586H14.8041C13.6354 5.25586 13.4091 5.7921 13.4091 6.57916V8.31445H16.2033L15.8393 11.0391H13.4091V18H18.1507C18.7189 18.0001 19.1795 17.5555 19.1797 17.0068C19.1797 17.0067 19.1797 17.0066 19.1797 17.0064V0.992725C19.1794 0.444397 18.7188 -0.000109843 18.1507 2.03608e-08Z" fill="white" fill-opacity="0.2"/>
</svg>
