<svg xmlns="http://www.w3.org/2000/svg" width="42.5" height="42.5" viewBox="0 0 42.5 42.5">
  <g id="H.Coin_filled_round" transform="translate(0.25 0.25)">
    <circle id="Ellipse_278" data-name="Ellipse 278" cx="21" cy="21" r="21" fill="#171a37" stroke="#ffdd82" stroke-width="0.5"/>
    <path id="Path_10025" data-name="Path 10025" d="M625.671,228.227v4.214a4.074,4.074,0,0,1-.02.565,1.318,1.318,0,0,1-.486,1.043,4.006,4.006,0,0,1-2.26.419.042.042,0,0,0-.042.042v1.577a.042.042,0,0,0,.042.042h9.506a.042.042,0,0,0,.042-.042v-1.635a.042.042,0,0,0-.037-.042,3.127,3.127,0,0,1-1.436-.427,1.228,1.228,0,0,1-.467-.638,3.406,3.406,0,0,1-.118-1.122V215.255a3.251,3.251,0,0,1,.118-1.123,1.236,1.236,0,0,1,.467-.638,3.214,3.214,0,0,1,1.436-.427.042.042,0,0,0,.037-.042V211.4a.042.042,0,0,0-.042-.042h-8.816a.042.042,0,0,0-.033.068l1.6,2.012a2.129,2.129,0,0,1,.506,1.647v4.89" transform="translate(-596.577 -202.216)" fill="#febd09"/>
    <path id="Path_10026" data-name="Path 10026" d="M625.671,228.227v4.214a4.074,4.074,0,0,1-.02.565,1.318,1.318,0,0,1-.486,1.043,4.006,4.006,0,0,1-2.26.419.042.042,0,0,0-.042.042v1.577a.042.042,0,0,0,.042.042h9.506a.042.042,0,0,0,.042-.042v-1.635a.042.042,0,0,0-.037-.042,3.127,3.127,0,0,1-1.436-.427,1.228,1.228,0,0,1-.467-.638,3.406,3.406,0,0,1-.118-1.122V215.255a3.251,3.251,0,0,1,.118-1.123,1.236,1.236,0,0,1,.467-.638,3.214,3.214,0,0,1,1.436-.427.042.042,0,0,0,.037-.042V211.4a.042.042,0,0,0-.042-.042h-8.816a.042.042,0,0,0-.033.068l1.6,2.012a2.129,2.129,0,0,1,.506,1.647v4.89" transform="translate(-596.577 -202.216)" fill="none" stroke="#ffdd82" stroke-miterlimit="10" stroke-width="0.5"/>
    <path id="Path_10027" data-name="Path 10027" d="M167.553,190.486a.043.043,0,0,0-.053.017c-1.605,2.594-3.188,2.957-3.472,3a.039.039,0,0,1-.045-.039V181.659a.041.041,0,0,1,.049-.041c1.889.352,3.06,2.466,3.205,2.743a.042.042,0,0,0,.048.021l3.249-.876a6.686,6.686,0,0,0-2.809-3.6,10.008,10.008,0,0,0-3.712-1.287.042.042,0,0,1-.036-.041v-2.125a.042.042,0,0,1,.041-.042l1.58-.043a.042.042,0,0,0,.028-.071l-2.352-2.353-.519-.516a.042.042,0,0,0-.059,0l-.519.516-2.362,2.35a.042.042,0,0,0,.029.071h1.7a.042.042,0,0,1,.042.042v2.174a.042.042,0,0,1-.04.042c-4.24.281-6.659,4.1-6.659,4.1v-4.105a2.111,2.111,0,0,1,.515-1.65l1.63-2.015a.042.042,0,0,0-.032-.068h-8.963a.042.042,0,0,0-.042.042v1.637a.042.042,0,0,0,.037.042,3.2,3.2,0,0,1,1.46.428,1.226,1.226,0,0,1,.474.639,3.345,3.345,0,0,1,.12,1.124v17a3.2,3.2,0,0,1-.12,1.124,1.23,1.23,0,0,1-.474.638,3.313,3.313,0,0,1-1.46.429.042.042,0,0,0-.037.042v1.618a.042.042,0,0,0,.042.042h9.664a.042.042,0,0,0,.042-.042v-1.578a.042.042,0,0,0-.042-.042,4.138,4.138,0,0,1-2.3-.419,1.311,1.311,0,0,1-.494-1.044,5.291,5.291,0,0,1-.02-.566V192.44l.073.107c1.52,2.892,6.133,4.059,6.542,4.158a.038.038,0,0,1,.029.04v1.083a.042.042,0,0,0,.042.042h2.357a.042.042,0,0,0,.042-.041l.012-1.078a.042.042,0,0,1,.038-.042,9.331,9.331,0,0,0,3.666-1.234,6.836,6.836,0,0,0,2.94-3.547.042.042,0,0,0-.021-.054Z" transform="translate(-141.5 -165.852)" fill="#febd09" stroke="#ffdd82" stroke-miterlimit="10" stroke-width="0.5"/>
    <path id="Path_10028" data-name="Path 10028" d="M356.667,381.332v-11.91a.04.04,0,0,0-.054-.039c-.518.182-4.613,1.756-4.613,6.128s4.106,5.712,4.615,5.861A.04.04,0,0,0,356.667,381.332Z" transform="translate(-337 -353.656)" fill="#171a37" stroke="#ffdd82" stroke-miterlimit="10" stroke-width="0.5"/>
  </g>
</svg>
