<svg width="492" height="146" viewBox="0 0 492 146" fill="none" xmlns="http://www.w3.org/2000/svg">
<path d="M185.745 12.4066H198.491V37.6045H209.537V12.4066H222.283V73.8837H209.537V46.6369H198.489V73.8837H185.745V12.4066ZM231.986 12.4066H244.654V73.8837H231.986V12.4066ZM255.01 12.4066H268.528L276.253 51.1885L284.448 12.4066H297.491L298.648 73.8837H289.38L288.374 32.1399L280.345 73.8837H272.465L264.202 31.9171L263.275 73.8891H253.928L255.01 12.4066ZM316.908 12.4066H331.038L343.088 73.8837H331.347L329.029 60.3731H319.147L316.753 73.8837H304.781L316.908 12.4066ZM327.799 52.6232L324.014 27.8818L320.315 52.6314L327.799 52.6232ZM349.436 12.4066H362.104V65.3947H376.858V73.8946H349.436V12.4066ZM391.89 12.4066H406.019L418.07 73.8837H406.329L404.011 60.3731H394.123L391.73 73.8837H379.757L391.89 12.4066ZM402.78 52.6232L398.995 27.8818L395.286 52.6232H402.78ZM429.811 49.5119L417.608 12.4066H429.58L436.3 34.0366L442.479 12.4066H454.144L442.093 49.52V73.8837H429.82L429.811 49.5119ZM465.815 12.3984H479.944L491.995 73.8755H480.254L477.936 60.3649H468.048L465.654 73.8755H453.682L465.815 12.3984ZM476.705 52.6151L472.92 27.8737L469.219 52.6314L476.705 52.6151ZM185.59 82.3102H205.442C216.256 82.3102 221.664 88.205 221.664 99.9946C221.664 106.217 220.119 110.645 217.028 113.277C213.323 116.054 208.752 117.425 204.129 117.146H198.258V143.776H185.59V82.3102ZM202.814 108.342C203.813 108.474 204.829 108.371 205.781 108.041C206.733 107.711 207.595 107.163 208.298 106.44C209.41 104.4 209.894 102.076 209.689 99.7609C209.735 98.1284 209.579 96.4966 209.224 94.9023C208.951 93.7384 208.23 92.7296 207.216 92.0953C205.848 91.343 204.293 91.0005 202.736 91.1089H198.258V108.337L202.814 108.342ZM232.16 82.3102H246.29L258.341 143.787H246.6L244.282 130.277H234.394L232 143.787H220.028L232.16 82.3102ZM243.051 122.527L239.266 97.7854L235.557 122.527H243.051ZM268.539 119.415L256.333 82.302H268.305L275.025 103.932L281.204 82.302H292.871L280.818 119.415V143.779H268.536L268.539 119.415Z" fill="#F9FAFC"/>
<path d="M296.513 132.508H307.637V143.779H296.513V132.508Z" fill="#FFCC00"/>
<path d="M38.8569 30.2613C38.6326 28.6588 38.7655 27.0265 39.246 25.4814C39.7266 23.9363 40.543 22.5166 41.6366 21.324L50.3888 10.1992H2.71777V19.3376C5.5161 19.4996 8.23741 20.3158 10.6629 21.7207C11.8357 22.5236 12.6806 23.7215 13.0432 25.0957C13.5265 27.0432 13.7269 29.0502 13.6383 31.0548V122.425C13.7267 124.43 13.5263 126.437 13.0432 128.385C12.6804 129.76 11.8345 130.959 10.6602 131.762C8.22668 133.118 5.50231 133.867 2.71777 133.947V143.284H53.7636V134.344C47.6063 134.344 43.4381 133.55 41.4491 132.17C40.6286 131.496 39.9704 130.646 39.5235 129.683C39.0766 128.72 38.8525 127.669 38.8677 126.607C38.8677 125.616 38.6694 124.621 38.6694 123.618V30.2613H38.8569Z" stroke="#FFCC00" stroke-width="2" stroke-miterlimit="10"/>
<path d="M38.8691 126.2H59.7238V97.9942H75.6142V132.757H88.5237V96.804C96.032 95.8266 103.226 93.1794 109.577 89.0568C115.078 85.4519 119.151 80.0435 121.098 73.7609V74.1577L120.701 123.219V123.407C120.735 124.407 120.668 125.409 120.503 126.396C120.542 127.461 120.329 128.52 119.88 129.487C119.432 130.454 118.76 131.301 117.921 131.958C115.935 133.548 111.764 134.341 105.409 134.132V143.271H157.647V134.146C154.843 134.016 152.115 133.197 149.702 131.763C148.528 130.915 147.63 129.74 147.121 128.385C146.638 126.437 146.437 124.43 146.526 122.426V31.0552C146.437 29.0506 146.638 27.0436 147.121 25.0961C147.56 23.7031 148.473 22.5081 149.702 21.7184C152.114 20.2826 154.843 19.4632 157.647 19.3326V10.1996H109.183L118.12 21.3217C119.213 22.5143 120.03 23.934 120.51 25.4791C120.991 27.0242 121.124 28.6565 120.899 30.259V52.3075C119.087 47.0877 115.594 42.6168 110.968 39.5958C104.169 35.4157 96.4787 32.9018 88.5237 32.259L88.3227 19.9331H97.4607L84.5539 6.83282L81.5731 3.84375L78.5841 6.83282L65.6827 19.9331H75.4158V31.4546H38.8691V126.2ZM94.0859 78.7282C89.1206 81.9057 81.3738 83.4944 70.8455 83.4944H59.9222V45.9625H74.223C83.5594 45.9625 90.51 47.5522 94.8739 50.5304C97.0548 52.0565 98.8042 54.1205 99.9525 56.5219C101.101 58.9234 101.609 61.5809 101.428 64.2366C101.621 67.0893 101.041 69.9411 99.7486 72.4916C98.4564 75.0421 96.5001 77.1966 94.0859 78.7282V78.7282Z" stroke="#FFCC00" stroke-width="2" stroke-miterlimit="10"/>
</svg>
