<svg width="20" height="20" viewBox="0 0 20 20" fill="none" xmlns="http://www.w3.org/2000/svg">
<path d="M6.68735 17.5087C13.2822 17.5087 16.8887 11.6466 16.8887 6.56344C16.8887 6.39694 16.8855 6.23114 16.8785 6.06625C17.5786 5.5232 18.187 4.84553 18.667 4.07418C18.0246 4.38068 17.3332 4.58673 16.6081 4.67996C17.3482 4.20352 17.9166 3.45018 18.1846 2.55212C17.4919 2.99278 16.7247 3.31292 15.9079 3.48584C15.2537 2.73811 14.3221 2.27051 13.2907 2.27051C11.3108 2.27051 9.70506 3.99323 9.70506 6.11682C9.70506 6.41885 9.73659 6.71239 9.79804 6.994C6.81816 6.83313 4.17567 5.30247 2.40749 2.97478C2.0997 3.54317 1.92208 4.20364 1.92208 4.90837C1.92208 6.24283 2.55508 7.42124 3.51756 8.11038C2.92934 8.091 2.37682 7.91774 1.89376 7.62936C1.89323 7.64553 1.89323 7.66124 1.89323 7.67844C1.89323 9.54151 3.12908 11.097 4.76987 11.4495C4.46849 11.5375 4.15141 11.5848 3.82438 11.5848C3.59376 11.5848 3.3689 11.5605 3.15046 11.5155C3.6069 13.0439 4.9306 14.1562 6.49989 14.1874C5.2727 15.2194 3.72681 15.8341 2.04669 15.8341C1.75771 15.8341 1.47205 15.8163 1.19141 15.7808C2.77822 16.872 4.66246 17.5089 6.68745 17.5089" fill="white" fill-opacity="0.2"/>
</svg>
