<svg width="23" height="23" viewBox="0 0 23 23" fill="none" xmlns="http://www.w3.org/2000/svg">
<path d="M1.82442 14.6001C2.58669 13.9303 3.5111 13.3516 4.5722 12.8801C5.02581 12.6787 5.55663 12.8829 5.75807 13.3364C5.95952 13.7898 5.75526 14.3206 5.30183 14.5222C4.40708 14.9199 3.63604 15.4001 3.01047 15.9499C2.23925 16.6276 1.79688 17.6088 1.79688 18.6426V20.3047C1.79688 20.8001 2.19994 21.2031 2.69531 21.2031H20.3047C20.8001 21.2031 21.2031 20.8001 21.2031 20.3047V18.6426C21.2031 17.6088 20.7607 16.6276 19.9895 15.9499C19.0818 15.1522 16.437 13.2969 11.5 13.2969C7.83413 13.2969 4.85156 10.3143 4.85156 6.64844C4.85156 2.98257 7.83413 0 11.5 0C15.1659 0 18.1484 2.98257 18.1484 6.64844C18.1484 8.79153 17.1289 10.7007 15.5496 11.9173C18.4394 12.5525 20.237 13.7752 21.1756 14.6001C22.3349 15.6188 23 17.0921 23 18.6426V20.3047C23 21.791 21.791 23 20.3047 23H2.69531C1.20903 23 0 21.791 0 20.3047V18.6426C0 17.0921 0.665054 15.6188 1.82442 14.6001ZM16.3516 6.64844C16.3516 3.9733 14.1751 1.79688 11.5 1.79688C8.82487 1.79688 6.64844 3.9733 6.64844 6.64844C6.64844 9.32357 8.82487 11.5 11.5 11.5C14.1751 11.5 16.3516 9.32357 16.3516 6.64844Z" fill="white"/>
</svg>
